<mxfile host="app.diagrams.net" modified="2021-09-28T19:35:49.019Z" agent="5.0 (Windows NT 10.0; Win64; x64) AppleWebKit/537.36 (KHTML, like Gecko) Chrome/93.0.4577.82 Safari/537.36 OPR/79.0.4143.50" etag="RYhv812xravKEoYcMgZ5" version="15.3.5" type="github">
  <diagram id="C5RBs43oDa-KdzZeNtuy" name="Page-1">
    <mxGraphModel dx="1852" dy="1039" grid="0" gridSize="10" guides="1" tooltips="1" connect="1" arrows="1" fold="1" page="0" pageScale="1" pageWidth="827" pageHeight="1169" background="none" math="0" shadow="0">
      <root>
        <mxCell id="WIyWlLk6GJQsqaUBKTNV-0" />
        <mxCell id="WIyWlLk6GJQsqaUBKTNV-1" parent="WIyWlLk6GJQsqaUBKTNV-0" />
        <mxCell id="gEqJjbBB_mZdY_3hWn1h-0" value="&lt;font style=&quot;font-size: 14px&quot; color=&quot;#fcfcfc&quot; face=&quot;Poppins&quot; data-font-src=&quot;https://fonts.googleapis.com/css?family=Poppins&quot;&gt;&lt;b&gt;START&lt;/b&gt;&lt;/font&gt;" style="rounded=1;whiteSpace=wrap;html=1;hachureGap=4;pointerEvents=0;fillColor=#4EC2CF;strokeColor=none;shadow=0;glass=0;sketch=0;gradientDirection=north;gradientColor=#89E3D2;" vertex="1" parent="WIyWlLk6GJQsqaUBKTNV-1">
          <mxGeometry x="346.5" y="40" width="143.5" height="30" as="geometry" />
        </mxCell>
        <mxCell id="gEqJjbBB_mZdY_3hWn1h-1" value="&lt;font face=&quot;Poppins&quot; data-font-src=&quot;https://fonts.googleapis.com/css?family=Poppins&quot; style=&quot;font-size: 10px&quot;&gt;ingresar Path&lt;/font&gt;" style="shape=parallelogram;perimeter=parallelogramPerimeter;whiteSpace=wrap;html=1;fixedSize=1;shadow=0;glass=1;sketch=0;hachureGap=4;pointerEvents=0;fillColor=#CCFFE6;strokeColor=none;rounded=1;arcSize=24;gradientColor=#ffffff;" vertex="1" parent="WIyWlLk6GJQsqaUBKTNV-1">
          <mxGeometry x="355.25" y="110" width="122.5" height="40" as="geometry" />
        </mxCell>
        <mxCell id="gEqJjbBB_mZdY_3hWn1h-2" value="&lt;font face=&quot;Poppins&quot; data-font-src=&quot;https://fonts.googleapis.com/css?family=Poppins&quot; style=&quot;font-size: 10px&quot;&gt;&lt;font&gt;resolver para que &lt;br&gt;&lt;/font&gt;&lt;font&gt;Path&amp;nbsp;sea absoluta&lt;/font&gt;&lt;/font&gt;" style="shape=parallelogram;perimeter=parallelogramPerimeter;whiteSpace=wrap;html=1;fixedSize=1;shadow=0;glass=1;sketch=0;hachureGap=4;pointerEvents=0;fillColor=#CCFFE6;strokeColor=none;rounded=1;arcSize=22;align=center;gradientColor=#ffffff;" vertex="1" parent="WIyWlLk6GJQsqaUBKTNV-1">
          <mxGeometry x="351.25" y="190" width="130" height="50" as="geometry" />
        </mxCell>
        <mxCell id="gEqJjbBB_mZdY_3hWn1h-3" value="" style="endArrow=blockThin;html=1;startSize=14;endSize=14;sourcePerimeterSpacing=8;targetPerimeterSpacing=8;strokeColor=#B3B3B3;rounded=1;strokeWidth=1;endFill=1;opacity=60;" edge="1" parent="WIyWlLk6GJQsqaUBKTNV-1">
          <mxGeometry width="50" height="50" relative="1" as="geometry">
            <mxPoint x="416.3" y="70" as="sourcePoint" />
            <mxPoint x="416.3" y="110" as="targetPoint" />
          </mxGeometry>
        </mxCell>
        <mxCell id="gEqJjbBB_mZdY_3hWn1h-13" value="&lt;font face=&quot;Poppins&quot; data-font-src=&quot;https://fonts.googleapis.com/css?family=Poppins&quot; style=&quot;font-size: 10px&quot;&gt;&lt;font&gt;¿Existe&lt;br&gt;&lt;/font&gt;&lt;font&gt;&amp;nbsp;Path?&lt;/font&gt;&lt;/font&gt;" style="rhombus;whiteSpace=wrap;html=1;rounded=1;shadow=0;glass=0;sketch=0;hachureGap=4;pointerEvents=0;strokeColor=none;fillColor=default;gradientDirection=north;arcSize=8;gradientColor=#FFF2CC;" vertex="1" parent="WIyWlLk6GJQsqaUBKTNV-1">
          <mxGeometry x="375" y="280" width="87.5" height="70" as="geometry" />
        </mxCell>
        <mxCell id="gEqJjbBB_mZdY_3hWn1h-15" value="&lt;font style=&quot;font-size: 9px&quot;&gt;sí&lt;/font&gt;" style="endArrow=blockThin;html=1;startSize=10;endSize=14;sourcePerimeterSpacing=7;targetPerimeterSpacing=7;strokeColor=#B3B3B3;rounded=1;strokeWidth=1;endFill=1;opacity=60;fontFamily=Poppins;fontSource=https%3A%2F%2Ffonts.googleapis.com%2Fcss%3Ffamily%3DPoppins;verticalAlign=middle;labelPosition=center;verticalLabelPosition=middle;align=center;" edge="1" parent="WIyWlLk6GJQsqaUBKTNV-1">
          <mxGeometry x="-0.2157" width="50" height="50" relative="1" as="geometry">
            <mxPoint x="420.24" y="350" as="sourcePoint" />
            <mxPoint x="420" y="401" as="targetPoint" />
            <mxPoint as="offset" />
          </mxGeometry>
        </mxCell>
        <mxCell id="gEqJjbBB_mZdY_3hWn1h-16" value="&lt;font face=&quot;Poppins&quot; data-font-src=&quot;https://fonts.googleapis.com/css?family=Poppins&quot; style=&quot;font-size: 10px&quot;&gt;&lt;font&gt;¿Existe&lt;br&gt;&lt;/font&gt;&lt;font&gt;&amp;nbsp;Directorio?&lt;/font&gt;&lt;/font&gt;" style="rhombus;whiteSpace=wrap;html=1;rounded=1;shadow=0;glass=0;sketch=0;hachureGap=4;pointerEvents=0;strokeColor=none;fillColor=default;gradientDirection=north;arcSize=8;gradientColor=#FFF2CC;" vertex="1" parent="WIyWlLk6GJQsqaUBKTNV-1">
          <mxGeometry x="373.75" y="400" width="90" height="70" as="geometry" />
        </mxCell>
        <mxCell id="gEqJjbBB_mZdY_3hWn1h-19" value="&lt;font style=&quot;font-size: 9px&quot;&gt;sí&lt;/font&gt;" style="endArrow=blockThin;html=1;startSize=14;endSize=14;sourcePerimeterSpacing=8;targetPerimeterSpacing=8;strokeColor=#B3B3B3;rounded=1;strokeWidth=1;endFill=1;opacity=60;fontFamily=Poppins;fontSource=https%3A%2F%2Ffonts.googleapis.com%2Fcss%3Ffamily%3DPoppins;verticalAlign=middle;entryX=1;entryY=0.5;entryDx=0;entryDy=0;exitX=0.021;exitY=0.518;exitDx=0;exitDy=0;exitPerimeter=0;" edge="1" parent="WIyWlLk6GJQsqaUBKTNV-1" source="gEqJjbBB_mZdY_3hWn1h-16" target="gEqJjbBB_mZdY_3hWn1h-20">
          <mxGeometry x="-0.2" width="50" height="50" relative="1" as="geometry">
            <mxPoint x="380.24" y="440" as="sourcePoint" />
            <mxPoint x="380.0000000000002" y="490" as="targetPoint" />
            <mxPoint as="offset" />
          </mxGeometry>
        </mxCell>
        <mxCell id="gEqJjbBB_mZdY_3hWn1h-20" value="&lt;font style=&quot;font-size: 10px&quot; face=&quot;Poppins&quot; data-font-src=&quot;https://fonts.googleapis.com/css?family=Poppins&quot;&gt;Abrir directorio &lt;br&gt;y mostrar&lt;br&gt;&amp;nbsp;archivos&lt;/font&gt;" style="shape=parallelogram;perimeter=parallelogramPerimeter;whiteSpace=wrap;html=1;fixedSize=1;shadow=0;glass=1;sketch=0;hachureGap=4;pointerEvents=0;fillColor=#CCFFE6;strokeColor=none;rounded=1;arcSize=21;align=center;gradientColor=#ffffff;" vertex="1" parent="WIyWlLk6GJQsqaUBKTNV-1">
          <mxGeometry x="190.5" y="405" width="129.5" height="60" as="geometry" />
        </mxCell>
        <mxCell id="gEqJjbBB_mZdY_3hWn1h-21" value="" style="endArrow=block;html=1;startSize=14;endSize=14;sourcePerimeterSpacing=8;targetPerimeterSpacing=8;strokeColor=#B3B3B3;rounded=1;strokeWidth=1;endFill=1;opacity=60;exitX=0.5;exitY=1;exitDx=0;exitDy=0;entryX=0.5;entryY=0;entryDx=0;entryDy=0;" edge="1" parent="WIyWlLk6GJQsqaUBKTNV-1" source="gEqJjbBB_mZdY_3hWn1h-20" target="gEqJjbBB_mZdY_3hWn1h-22">
          <mxGeometry width="50" height="50" relative="1" as="geometry">
            <mxPoint x="350" y="550" as="sourcePoint" />
            <mxPoint x="320" y="549.58" as="targetPoint" />
          </mxGeometry>
        </mxCell>
        <mxCell id="gEqJjbBB_mZdY_3hWn1h-22" value="&lt;font face=&quot;Poppins&quot; data-font-src=&quot;https://fonts.googleapis.com/css?family=Poppins&quot; style=&quot;font-size: 10px&quot;&gt;¿El&amp;nbsp; Directorio&lt;br&gt;está vacío?&lt;/font&gt;" style="rhombus;whiteSpace=wrap;html=1;rounded=1;shadow=0;glass=0;sketch=0;hachureGap=4;pointerEvents=0;strokeColor=none;fillColor=default;gradientDirection=north;arcSize=8;gradientColor=#FFF2CC;" vertex="1" parent="WIyWlLk6GJQsqaUBKTNV-1">
          <mxGeometry x="210.25" y="507.5" width="90" height="85" as="geometry" />
        </mxCell>
        <mxCell id="gEqJjbBB_mZdY_3hWn1h-23" value="&lt;font style=&quot;font-size: 9px&quot;&gt;no&lt;/font&gt;" style="endArrow=blockThin;html=1;startSize=14;endSize=14;sourcePerimeterSpacing=8;targetPerimeterSpacing=8;strokeColor=#B3B3B3;rounded=1;strokeWidth=1;endFill=1;opacity=60;fontFamily=Poppins;fontSource=https%3A%2F%2Ffonts.googleapis.com%2Fcss%3Ffamily%3DPoppins;verticalAlign=middle;exitX=1;exitY=0.5;exitDx=0;exitDy=0;" edge="1" parent="WIyWlLk6GJQsqaUBKTNV-1" source="gEqJjbBB_mZdY_3hWn1h-22">
          <mxGeometry x="-0.1999" width="50" height="50" relative="1" as="geometry">
            <mxPoint x="320.24" y="542.5" as="sourcePoint" />
            <mxPoint x="360" y="550" as="targetPoint" />
            <mxPoint as="offset" />
            <Array as="points" />
          </mxGeometry>
        </mxCell>
        <mxCell id="gEqJjbBB_mZdY_3hWn1h-26" value="" style="endArrow=blockThin;html=1;startSize=14;endSize=14;sourcePerimeterSpacing=8;targetPerimeterSpacing=8;strokeColor=#B3B3B3;rounded=1;strokeWidth=1;endFill=1;opacity=60;" edge="1" parent="WIyWlLk6GJQsqaUBKTNV-1">
          <mxGeometry width="50" height="50" relative="1" as="geometry">
            <mxPoint x="416.05" y="150" as="sourcePoint" />
            <mxPoint x="416.05" y="190" as="targetPoint" />
          </mxGeometry>
        </mxCell>
        <mxCell id="gEqJjbBB_mZdY_3hWn1h-27" value="" style="endArrow=blockThin;html=1;startSize=14;endSize=14;sourcePerimeterSpacing=8;targetPerimeterSpacing=8;strokeColor=#B3B3B3;rounded=1;strokeWidth=1;endFill=1;opacity=60;" edge="1" parent="WIyWlLk6GJQsqaUBKTNV-1">
          <mxGeometry width="50" height="50" relative="1" as="geometry">
            <mxPoint x="417.08" y="240" as="sourcePoint" />
            <mxPoint x="417.08" y="280" as="targetPoint" />
          </mxGeometry>
        </mxCell>
        <mxCell id="gEqJjbBB_mZdY_3hWn1h-31" value="&lt;font style=&quot;font-size: 9px&quot;&gt;no&lt;/font&gt;" style="endArrow=blockThin;html=1;startSize=14;endSize=14;sourcePerimeterSpacing=8;targetPerimeterSpacing=8;strokeColor=#B3B3B3;rounded=1;strokeWidth=1;endFill=1;opacity=60;fontFamily=Poppins;fontSource=https%3A%2F%2Ffonts.googleapis.com%2Fcss%3Ffamily%3DPoppins;verticalAlign=middle;labelPosition=center;verticalLabelPosition=middle;align=center;entryX=0;entryY=0.5;entryDx=0;entryDy=0;" edge="1" parent="WIyWlLk6GJQsqaUBKTNV-1" target="gEqJjbBB_mZdY_3hWn1h-32">
          <mxGeometry x="-0.1657" width="50" height="50" relative="1" as="geometry">
            <mxPoint x="462.7399999999999" y="320" as="sourcePoint" />
            <mxPoint x="600" y="320" as="targetPoint" />
            <mxPoint as="offset" />
            <Array as="points" />
          </mxGeometry>
        </mxCell>
        <mxCell id="gEqJjbBB_mZdY_3hWn1h-32" value="&lt;font style=&quot;font-size: 10px&quot;&gt;La ruta ingresada &lt;br&gt;no existe&lt;/font&gt;" style="rounded=1;whiteSpace=wrap;html=1;shadow=0;glass=0;sketch=0;hachureGap=4;pointerEvents=0;fontFamily=Poppins;fontSource=https%3A%2F%2Ffonts.googleapis.com%2Fcss%3Ffamily%3DPoppins;strokeColor=none;fillColor=#FFFFFF;gradientDirection=north;gradientColor=#99CCFF;" vertex="1" parent="WIyWlLk6GJQsqaUBKTNV-1">
          <mxGeometry x="680" y="300" width="120" height="40" as="geometry" />
        </mxCell>
        <mxCell id="gEqJjbBB_mZdY_3hWn1h-33" value="&lt;font style=&quot;font-size: 14px&quot; color=&quot;#fcfcfc&quot; face=&quot;Poppins&quot; data-font-src=&quot;https://fonts.googleapis.com/css?family=Poppins&quot;&gt;&lt;b&gt;END&lt;/b&gt;&lt;/font&gt;" style="rounded=1;whiteSpace=wrap;html=1;hachureGap=4;pointerEvents=0;fillColor=#4EC2CF;strokeColor=none;shadow=1;glass=0;sketch=0;gradientDirection=north;gradientColor=#89E3D2;" vertex="1" parent="WIyWlLk6GJQsqaUBKTNV-1">
          <mxGeometry x="348.25" y="1200" width="140" height="30" as="geometry" />
        </mxCell>
        <mxCell id="gEqJjbBB_mZdY_3hWn1h-36" value="&lt;font face=&quot;Poppins&quot; style=&quot;font-size: 9px&quot;&gt;&lt;span style=&quot;font-size: 10px&quot;&gt;Filtrar array&lt;br&gt;&amp;nbsp;para solo obtener&lt;br&gt;&amp;nbsp;archivos MD&lt;/span&gt;&lt;/font&gt;" style="shape=parallelogram;perimeter=parallelogramPerimeter;whiteSpace=wrap;html=1;fixedSize=1;shadow=0;glass=1;sketch=0;hachureGap=4;pointerEvents=0;fillColor=#CCFFE6;strokeColor=none;rounded=1;arcSize=21;align=center;gradientColor=#ffffff;" vertex="1" parent="WIyWlLk6GJQsqaUBKTNV-1">
          <mxGeometry x="348.25" y="520" width="141.75" height="60" as="geometry" />
        </mxCell>
        <mxCell id="gEqJjbBB_mZdY_3hWn1h-38" value="&lt;font style=&quot;font-size: 9px&quot;&gt;no&lt;/font&gt;" style="endArrow=blockThin;html=1;startSize=10;endSize=14;sourcePerimeterSpacing=7;targetPerimeterSpacing=7;strokeColor=#B3B3B3;rounded=1;strokeWidth=1;endFill=1;opacity=60;fontFamily=Poppins;fontSource=https%3A%2F%2Ffonts.googleapis.com%2Fcss%3Ffamily%3DPoppins;verticalAlign=middle;labelPosition=center;verticalLabelPosition=middle;align=center;" edge="1" parent="WIyWlLk6GJQsqaUBKTNV-1">
          <mxGeometry x="-0.2157" width="50" height="50" relative="1" as="geometry">
            <mxPoint x="419" y="469" as="sourcePoint" />
            <mxPoint x="418.55" y="520" as="targetPoint" />
            <mxPoint as="offset" />
          </mxGeometry>
        </mxCell>
        <mxCell id="gEqJjbBB_mZdY_3hWn1h-39" value="&lt;font face=&quot;Poppins&quot; data-font-src=&quot;https://fonts.googleapis.com/css?family=Poppins&quot; style=&quot;font-size: 9px&quot;&gt;&lt;font&gt;¿Hay &lt;br&gt;archivos MD&amp;nbsp;&lt;/font&gt;&lt;font&gt;?&lt;/font&gt;&lt;/font&gt;" style="rhombus;whiteSpace=wrap;html=1;rounded=1;shadow=0;glass=0;sketch=0;hachureGap=4;pointerEvents=0;strokeColor=none;fillColor=default;gradientDirection=north;arcSize=8;gradientColor=#FFF2CC;" vertex="1" parent="WIyWlLk6GJQsqaUBKTNV-1">
          <mxGeometry x="374.5" y="620" width="87.5" height="70" as="geometry" />
        </mxCell>
        <mxCell id="gEqJjbBB_mZdY_3hWn1h-41" value="" style="endArrow=blockThin;html=1;startSize=14;endSize=14;sourcePerimeterSpacing=8;targetPerimeterSpacing=8;strokeColor=#B3B3B3;rounded=1;strokeWidth=1;endFill=1;opacity=60;" edge="1" parent="WIyWlLk6GJQsqaUBKTNV-1">
          <mxGeometry width="50" height="50" relative="1" as="geometry">
            <mxPoint x="418.54999999999995" y="580" as="sourcePoint" />
            <mxPoint x="418.54999999999995" y="620" as="targetPoint" />
          </mxGeometry>
        </mxCell>
        <mxCell id="gEqJjbBB_mZdY_3hWn1h-42" value="&lt;font style=&quot;font-size: 9px&quot;&gt;sí&lt;/font&gt;" style="endArrow=blockThin;html=1;startSize=10;endSize=14;sourcePerimeterSpacing=7;targetPerimeterSpacing=7;strokeColor=#B3B3B3;rounded=1;strokeWidth=1;endFill=1;opacity=60;fontFamily=Poppins;fontSource=https%3A%2F%2Ffonts.googleapis.com%2Fcss%3Ffamily%3DPoppins;verticalAlign=middle;labelPosition=center;verticalLabelPosition=middle;align=center;" edge="1" parent="WIyWlLk6GJQsqaUBKTNV-1">
          <mxGeometry x="-0.2157" width="50" height="50" relative="1" as="geometry">
            <mxPoint x="418.79" y="690" as="sourcePoint" />
            <mxPoint x="418.55" y="741" as="targetPoint" />
            <mxPoint as="offset" />
          </mxGeometry>
        </mxCell>
        <mxCell id="gEqJjbBB_mZdY_3hWn1h-43" value="&lt;font face=&quot;Poppins&quot; data-font-src=&quot;https://fonts.googleapis.com/css?family=Poppins&quot; style=&quot;font-size: 9px&quot;&gt;&lt;font&gt;¿Tiene URLs&amp;nbsp;&lt;/font&gt;&lt;font&gt;?&lt;/font&gt;&lt;/font&gt;" style="rhombus;whiteSpace=wrap;html=1;rounded=1;shadow=0;glass=0;sketch=0;hachureGap=4;pointerEvents=0;strokeColor=none;fillColor=default;gradientDirection=north;arcSize=8;gradientColor=#FFF2CC;" vertex="1" parent="WIyWlLk6GJQsqaUBKTNV-1">
          <mxGeometry x="375" y="740" width="87.5" height="70" as="geometry" />
        </mxCell>
        <mxCell id="gEqJjbBB_mZdY_3hWn1h-44" value="&lt;font face=&quot;Poppins&quot; data-font-src=&quot;https://fonts.googleapis.com/css?family=Poppins&quot; style=&quot;font-size: 9px&quot;&gt;&lt;font&gt;¿validate = TRUE&amp;nbsp;&lt;/font&gt;&lt;font&gt;?&lt;/font&gt;&lt;/font&gt;" style="rhombus;whiteSpace=wrap;html=1;rounded=1;shadow=0;glass=0;sketch=0;hachureGap=4;pointerEvents=0;strokeColor=none;fillColor=default;gradientDirection=north;arcSize=8;gradientColor=#FFF2CC;" vertex="1" parent="WIyWlLk6GJQsqaUBKTNV-1">
          <mxGeometry x="374.5" y="860" width="87.5" height="70" as="geometry" />
        </mxCell>
        <mxCell id="gEqJjbBB_mZdY_3hWn1h-45" value="&lt;font style=&quot;font-size: 9px&quot;&gt;sí&lt;/font&gt;" style="endArrow=blockThin;html=1;startSize=10;endSize=14;sourcePerimeterSpacing=7;targetPerimeterSpacing=7;strokeColor=#B3B3B3;rounded=1;strokeWidth=1;endFill=1;opacity=60;fontFamily=Poppins;fontSource=https%3A%2F%2Ffonts.googleapis.com%2Fcss%3Ffamily%3DPoppins;verticalAlign=middle;labelPosition=center;verticalLabelPosition=middle;align=center;" edge="1" parent="WIyWlLk6GJQsqaUBKTNV-1">
          <mxGeometry x="-0.2157" width="50" height="50" relative="1" as="geometry">
            <mxPoint x="418.87" y="810" as="sourcePoint" />
            <mxPoint x="418.63" y="861" as="targetPoint" />
            <mxPoint as="offset" />
          </mxGeometry>
        </mxCell>
        <mxCell id="gEqJjbBB_mZdY_3hWn1h-46" value="&lt;font face=&quot;Poppins&quot;&gt;&lt;span style=&quot;font-size: 10px&quot;&gt;HTTP&lt;br&gt;&amp;nbsp;REQUEST&lt;/span&gt;&lt;/font&gt;" style="shape=parallelogram;perimeter=parallelogramPerimeter;whiteSpace=wrap;html=1;fixedSize=1;shadow=0;glass=1;sketch=0;hachureGap=4;pointerEvents=0;fillColor=#CCFFE6;strokeColor=none;rounded=1;arcSize=22;align=center;gradientColor=#ffffff;" vertex="1" parent="WIyWlLk6GJQsqaUBKTNV-1">
          <mxGeometry x="353.25" y="980" width="130" height="50" as="geometry" />
        </mxCell>
        <mxCell id="gEqJjbBB_mZdY_3hWn1h-47" value="&lt;font face=&quot;Poppins&quot; style=&quot;font-size: 9px&quot;&gt;Retornar un arreglo de&lt;br&gt;&amp;nbsp;objetos que contienen :&amp;nbsp;&lt;br&gt;href, text, file, status, ok/fail&lt;br&gt;&lt;/font&gt;" style="shape=parallelogram;perimeter=parallelogramPerimeter;whiteSpace=wrap;html=1;fixedSize=1;shadow=0;glass=1;sketch=0;hachureGap=4;pointerEvents=0;fillColor=#CCFFE6;strokeColor=none;rounded=1;arcSize=22;align=center;gradientColor=#ffffff;" vertex="1" parent="WIyWlLk6GJQsqaUBKTNV-1">
          <mxGeometry x="337.75" y="1070" width="150" height="70" as="geometry" />
        </mxCell>
        <mxCell id="gEqJjbBB_mZdY_3hWn1h-49" value="&lt;font style=&quot;font-size: 9px&quot;&gt;sí&lt;/font&gt;" style="endArrow=blockThin;html=1;startSize=10;endSize=14;sourcePerimeterSpacing=7;targetPerimeterSpacing=7;strokeColor=#B3B3B3;rounded=1;strokeWidth=1;endFill=1;opacity=60;fontFamily=Poppins;fontSource=https%3A%2F%2Ffonts.googleapis.com%2Fcss%3Ffamily%3DPoppins;verticalAlign=middle;labelPosition=center;verticalLabelPosition=middle;align=center;" edge="1" parent="WIyWlLk6GJQsqaUBKTNV-1">
          <mxGeometry x="-0.2157" width="50" height="50" relative="1" as="geometry">
            <mxPoint x="418.37" y="929" as="sourcePoint" />
            <mxPoint x="418.13" y="980" as="targetPoint" />
            <mxPoint as="offset" />
          </mxGeometry>
        </mxCell>
        <mxCell id="gEqJjbBB_mZdY_3hWn1h-51" value="" style="endArrow=blockThin;html=1;startSize=14;endSize=14;sourcePerimeterSpacing=8;targetPerimeterSpacing=8;strokeColor=#B3B3B3;rounded=1;strokeWidth=1;endFill=1;opacity=60;" edge="1" parent="WIyWlLk6GJQsqaUBKTNV-1">
          <mxGeometry width="50" height="50" relative="1" as="geometry">
            <mxPoint x="418.15" y="1030" as="sourcePoint" />
            <mxPoint x="418.15" y="1070" as="targetPoint" />
          </mxGeometry>
        </mxCell>
        <mxCell id="gEqJjbBB_mZdY_3hWn1h-52" value="&lt;font style=&quot;font-size: 10px&quot;&gt;No se cuenta con archivos MD&lt;/font&gt;" style="rounded=1;whiteSpace=wrap;html=1;shadow=0;glass=0;sketch=0;hachureGap=4;pointerEvents=0;fontFamily=Poppins;fontSource=https%3A%2F%2Ffonts.googleapis.com%2Fcss%3Ffamily%3DPoppins;strokeColor=none;fillColor=#FFFFFF;gradientDirection=north;gradientColor=#99CCFF;" vertex="1" parent="WIyWlLk6GJQsqaUBKTNV-1">
          <mxGeometry x="550" y="635" width="100" height="40" as="geometry" />
        </mxCell>
        <mxCell id="gEqJjbBB_mZdY_3hWn1h-53" value="&lt;font style=&quot;font-size: 10px&quot;&gt;No existen URLs&lt;/font&gt;" style="rounded=1;whiteSpace=wrap;html=1;shadow=0;glass=0;sketch=0;hachureGap=4;pointerEvents=0;fontFamily=Poppins;fontSource=https%3A%2F%2Ffonts.googleapis.com%2Fcss%3Ffamily%3DPoppins;strokeColor=none;fillColor=#FFFFFF;gradientDirection=north;gradientColor=#99CCFF;" vertex="1" parent="WIyWlLk6GJQsqaUBKTNV-1">
          <mxGeometry x="548" y="755" width="100" height="40" as="geometry" />
        </mxCell>
        <mxCell id="gEqJjbBB_mZdY_3hWn1h-54" value="&lt;span style=&quot;font-size: 9px&quot;&gt;Retornar un arreglo de&amp;nbsp;&lt;/span&gt;&lt;span style=&quot;font-size: 9px&quot;&gt;objetos que contienen :&amp;nbsp;&lt;/span&gt;&lt;span style=&quot;font-size: 9px&quot;&gt;href, text, file,&lt;/span&gt;" style="rounded=1;whiteSpace=wrap;html=1;shadow=0;glass=0;sketch=0;hachureGap=4;pointerEvents=0;fontFamily=Poppins;fontSource=https%3A%2F%2Ffonts.googleapis.com%2Fcss%3Ffamily%3DPoppins;strokeColor=none;fillColor=#FFFFFF;gradientDirection=north;gradientColor=#99CCFF;" vertex="1" parent="WIyWlLk6GJQsqaUBKTNV-1">
          <mxGeometry x="538" y="866" width="120" height="55" as="geometry" />
        </mxCell>
        <mxCell id="gEqJjbBB_mZdY_3hWn1h-55" value="&lt;font style=&quot;font-size: 9px&quot;&gt;no&lt;/font&gt;" style="endArrow=blockThin;html=1;startSize=14;endSize=14;sourcePerimeterSpacing=8;targetPerimeterSpacing=8;strokeColor=#B3B3B3;rounded=1;strokeWidth=1;endFill=1;opacity=60;fontFamily=Poppins;fontSource=https%3A%2F%2Ffonts.googleapis.com%2Fcss%3Ffamily%3DPoppins;verticalAlign=middle;exitX=0.98;exitY=0.499;exitDx=0;exitDy=0;exitPerimeter=0;" edge="1" parent="WIyWlLk6GJQsqaUBKTNV-1" source="gEqJjbBB_mZdY_3hWn1h-39">
          <mxGeometry x="-0.1999" width="50" height="50" relative="1" as="geometry">
            <mxPoint x="462" y="654.8" as="sourcePoint" />
            <mxPoint x="530" y="654" as="targetPoint" />
            <mxPoint as="offset" />
            <Array as="points" />
          </mxGeometry>
        </mxCell>
        <mxCell id="gEqJjbBB_mZdY_3hWn1h-56" value="&lt;font style=&quot;font-size: 9px&quot;&gt;no&lt;/font&gt;" style="endArrow=blockThin;html=1;startSize=14;endSize=14;sourcePerimeterSpacing=8;targetPerimeterSpacing=8;strokeColor=#B3B3B3;rounded=1;strokeWidth=1;endFill=1;opacity=60;fontFamily=Poppins;fontSource=https%3A%2F%2Ffonts.googleapis.com%2Fcss%3Ffamily%3DPoppins;verticalAlign=middle;exitX=1;exitY=0.5;exitDx=0;exitDy=0;entryX=0.006;entryY=0.532;entryDx=0;entryDy=0;entryPerimeter=0;" edge="1" parent="WIyWlLk6GJQsqaUBKTNV-1" target="gEqJjbBB_mZdY_3hWn1h-53">
          <mxGeometry x="-0.1999" width="50" height="50" relative="1" as="geometry">
            <mxPoint x="462" y="774.8" as="sourcePoint" />
            <mxPoint x="521.75" y="774.8" as="targetPoint" />
            <mxPoint as="offset" />
            <Array as="points" />
          </mxGeometry>
        </mxCell>
        <mxCell id="gEqJjbBB_mZdY_3hWn1h-58" value="" style="endArrow=blockThin;html=1;fontFamily=Poppins;fontSource=https%3A%2F%2Ffonts.googleapis.com%2Fcss%3Ffamily%3DPoppins;startSize=10;endSize=14;sourcePerimeterSpacing=7;targetPerimeterSpacing=7;strokeColor=#B3B3B3;strokeWidth=1;align=right;verticalAlign=middle;opacity=60;endFill=1;" edge="1" parent="WIyWlLk6GJQsqaUBKTNV-1">
          <mxGeometry width="50" height="50" relative="1" as="geometry">
            <mxPoint x="650" y="895" as="sourcePoint" />
            <mxPoint x="740" y="895" as="targetPoint" />
          </mxGeometry>
        </mxCell>
        <mxCell id="gEqJjbBB_mZdY_3hWn1h-60" value="" style="endArrow=blockThin;html=1;fontFamily=Poppins;fontSource=https%3A%2F%2Ffonts.googleapis.com%2Fcss%3Ffamily%3DPoppins;startSize=10;endSize=14;sourcePerimeterSpacing=7;targetPerimeterSpacing=7;strokeColor=#B3B3B3;strokeWidth=1;align=right;verticalAlign=middle;opacity=60;endFill=1;" edge="1" parent="WIyWlLk6GJQsqaUBKTNV-1">
          <mxGeometry width="50" height="50" relative="1" as="geometry">
            <mxPoint x="630" y="774.84" as="sourcePoint" />
            <mxPoint x="740" y="775" as="targetPoint" />
          </mxGeometry>
        </mxCell>
        <mxCell id="gEqJjbBB_mZdY_3hWn1h-63" value="" style="endArrow=none;html=1;fontFamily=Poppins;fontSource=https%3A%2F%2Ffonts.googleapis.com%2Fcss%3Ffamily%3DPoppins;startSize=10;endSize=14;sourcePerimeterSpacing=7;targetPerimeterSpacing=7;strokeColor=#B3B3B3;strokeWidth=1;align=right;verticalAlign=middle;opacity=60;" edge="1" parent="WIyWlLk6GJQsqaUBKTNV-1">
          <mxGeometry width="50" height="50" relative="1" as="geometry">
            <mxPoint x="90" y="1210" as="sourcePoint" />
            <mxPoint x="89.95" y="550" as="targetPoint" />
          </mxGeometry>
        </mxCell>
        <mxCell id="gEqJjbBB_mZdY_3hWn1h-64" value="" style="endArrow=blockThin;html=1;fontFamily=Poppins;fontSource=https%3A%2F%2Ffonts.googleapis.com%2Fcss%3Ffamily%3DPoppins;startSize=10;endSize=14;sourcePerimeterSpacing=7;targetPerimeterSpacing=7;strokeColor=#B3B3B3;strokeWidth=1;align=right;verticalAlign=middle;opacity=60;entryX=1.002;entryY=0.597;entryDx=0;entryDy=0;entryPerimeter=0;endFill=1;" edge="1" parent="WIyWlLk6GJQsqaUBKTNV-1" target="gEqJjbBB_mZdY_3hWn1h-33">
          <mxGeometry width="50" height="50" relative="1" as="geometry">
            <mxPoint x="740" y="1210" as="sourcePoint" />
            <mxPoint x="570" y="1510" as="targetPoint" />
            <Array as="points">
              <mxPoint x="740" y="1220" />
            </Array>
          </mxGeometry>
        </mxCell>
        <mxCell id="gEqJjbBB_mZdY_3hWn1h-65" value="&lt;font style=&quot;font-size: 10px&quot;&gt;no se puede continuar&lt;/font&gt;" style="rounded=1;whiteSpace=wrap;html=1;shadow=0;glass=0;sketch=0;hachureGap=4;pointerEvents=0;fontFamily=Poppins;fontSource=https%3A%2F%2Ffonts.googleapis.com%2Fcss%3Ffamily%3DPoppins;strokeColor=none;fillColor=#FFFFFF;gradientDirection=north;gradientColor=#99CCFF;" vertex="1" parent="WIyWlLk6GJQsqaUBKTNV-1">
          <mxGeometry x="40" y="530" width="100" height="40" as="geometry" />
        </mxCell>
        <mxCell id="gEqJjbBB_mZdY_3hWn1h-66" value="" style="endArrow=none;html=1;fontFamily=Poppins;fontSource=https%3A%2F%2Ffonts.googleapis.com%2Fcss%3Ffamily%3DPoppins;startSize=10;endSize=14;sourcePerimeterSpacing=7;targetPerimeterSpacing=7;strokeColor=#B3B3B3;strokeWidth=1;align=right;verticalAlign=middle;opacity=60;" edge="1" parent="WIyWlLk6GJQsqaUBKTNV-1">
          <mxGeometry width="50" height="50" relative="1" as="geometry">
            <mxPoint x="740" y="1210" as="sourcePoint" />
            <mxPoint x="740" y="340" as="targetPoint" />
          </mxGeometry>
        </mxCell>
        <mxCell id="gEqJjbBB_mZdY_3hWn1h-67" value="&lt;font style=&quot;font-size: 9px&quot;&gt;sí&lt;/font&gt;" style="endArrow=blockThin;html=1;startSize=14;endSize=14;sourcePerimeterSpacing=8;targetPerimeterSpacing=8;strokeColor=#B3B3B3;rounded=1;strokeWidth=1;endFill=1;opacity=60;fontFamily=Poppins;fontSource=https%3A%2F%2Ffonts.googleapis.com%2Fcss%3Ffamily%3DPoppins;verticalAlign=middle;entryX=1;entryY=0.5;entryDx=0;entryDy=0;exitX=0.021;exitY=0.518;exitDx=0;exitDy=0;exitPerimeter=0;" edge="1" parent="WIyWlLk6GJQsqaUBKTNV-1" target="gEqJjbBB_mZdY_3hWn1h-65">
          <mxGeometry x="-0.2" width="50" height="50" relative="1" as="geometry">
            <mxPoint x="210.2499999999999" y="550.63" as="sourcePoint" />
            <mxPoint x="144.61" y="549.37" as="targetPoint" />
            <mxPoint as="offset" />
          </mxGeometry>
        </mxCell>
        <mxCell id="gEqJjbBB_mZdY_3hWn1h-70" value="" style="endArrow=blockThin;html=1;startSize=14;endSize=14;sourcePerimeterSpacing=8;targetPerimeterSpacing=8;strokeColor=#B3B3B3;rounded=1;strokeWidth=1;endFill=1;opacity=60;entryX=0.484;entryY=-0.027;entryDx=0;entryDy=0;entryPerimeter=0;" edge="1" parent="WIyWlLk6GJQsqaUBKTNV-1" target="gEqJjbBB_mZdY_3hWn1h-33">
          <mxGeometry width="50" height="50" relative="1" as="geometry">
            <mxPoint x="416.0000000000001" y="1140" as="sourcePoint" />
            <mxPoint x="416" y="1190" as="targetPoint" />
          </mxGeometry>
        </mxCell>
        <mxCell id="gEqJjbBB_mZdY_3hWn1h-78" value="" style="endArrow=blockThin;html=1;fontFamily=Poppins;fontSource=https%3A%2F%2Ffonts.googleapis.com%2Fcss%3Ffamily%3DPoppins;startSize=10;endSize=14;sourcePerimeterSpacing=7;targetPerimeterSpacing=7;strokeColor=#B3B3B3;strokeWidth=1;align=right;verticalAlign=middle;opacity=60;entryX=0;entryY=0.61;entryDx=0;entryDy=0;entryPerimeter=0;endFill=1;" edge="1" parent="WIyWlLk6GJQsqaUBKTNV-1" target="gEqJjbBB_mZdY_3hWn1h-33">
          <mxGeometry width="50" height="50" relative="1" as="geometry">
            <mxPoint x="90" y="1210" as="sourcePoint" />
            <mxPoint x="60" y="1217.9099999999999" as="targetPoint" />
            <Array as="points">
              <mxPoint x="90" y="1218" />
            </Array>
          </mxGeometry>
        </mxCell>
        <mxCell id="gEqJjbBB_mZdY_3hWn1h-80" value="" style="endArrow=blockThin;html=1;fontFamily=Poppins;fontSource=https%3A%2F%2Ffonts.googleapis.com%2Fcss%3Ffamily%3DPoppins;startSize=10;endSize=14;sourcePerimeterSpacing=7;targetPerimeterSpacing=7;strokeColor=#B3B3B3;strokeWidth=1;align=right;verticalAlign=middle;opacity=60;endFill=1;" edge="1" parent="WIyWlLk6GJQsqaUBKTNV-1">
          <mxGeometry width="50" height="50" relative="1" as="geometry">
            <mxPoint x="630" y="654.7600000000001" as="sourcePoint" />
            <mxPoint x="740" y="654.92" as="targetPoint" />
          </mxGeometry>
        </mxCell>
        <mxCell id="gEqJjbBB_mZdY_3hWn1h-81" value="&lt;font style=&quot;font-size: 9px&quot;&gt;no&lt;/font&gt;" style="endArrow=blockThin;html=1;startSize=14;endSize=14;sourcePerimeterSpacing=8;targetPerimeterSpacing=8;strokeColor=#B3B3B3;rounded=1;strokeWidth=1;endFill=1;opacity=60;fontFamily=Poppins;fontSource=https%3A%2F%2Ffonts.googleapis.com%2Fcss%3Ffamily%3DPoppins;verticalAlign=middle;exitX=1;exitY=0.5;exitDx=0;exitDy=0;entryX=0.006;entryY=0.532;entryDx=0;entryDy=0;entryPerimeter=0;" edge="1" parent="WIyWlLk6GJQsqaUBKTNV-1">
          <mxGeometry x="-0.1999" width="50" height="50" relative="1" as="geometry">
            <mxPoint x="462.5" y="894.26" as="sourcePoint" />
            <mxPoint x="531.1000000000001" y="895.74" as="targetPoint" />
            <mxPoint as="offset" />
            <Array as="points" />
          </mxGeometry>
        </mxCell>
      </root>
    </mxGraphModel>
  </diagram>
</mxfile>
